<svg xmlns="http://www.w3.org/2000/svg" xmlns:xlink="http://www.w3.org/1999/xlink" viewBox="0 0 314.15 431.96"><defs><mask id="a" x="0" y="0" width="314.15" height="431.96" maskUnits="userSpaceOnUse"><g transform="translate(-354.93 -296.04)"><path d="M551.28,296H384.38a29.54,29.54,0,0,0-29.45,29.45V698.55A29.54,29.54,0,0,0,384.38,728H639.63a29.54,29.54,0,0,0,29.45-29.45V413.85Z" style="fill:#fff"/></g></mask><linearGradient id="d" x1="47.68" y1="989.58" x2="47.68" y2="983.52" gradientTransform="matrix(16.45, 0, 0, -16.45, -524.93, 16395.57)" gradientUnits="userSpaceOnUse"><stop offset="0" stop-color="#bf360c" stop-opacity="0.2"/><stop offset="1" stop-color="#bf360c" stop-opacity="0.02"/></linearGradient><radialGradient id="j" cx="20.43" cy="1006.78" r="10.7" gradientTransform="matrix(47.33, 0, 0, -47.33, -602.33, 47962.17)" gradientUnits="userSpaceOnUse"><stop offset="0" stop-color="#fff" stop-opacity="0.1"/><stop offset="1" stop-color="#fff" stop-opacity="0"/></radialGradient></defs><title>Google Slides logo</title><g style="mask:url(#a)"><path d="M551.28,296H384.38a29.54,29.54,0,0,0-29.45,29.45V698.55A29.54,29.54,0,0,0,384.38,728H639.63a29.54,29.54,0,0,0,29.45-29.45V413.85l-68.72-49.09Z" transform="translate(-354.93 -296.04)" style="fill:#f4b400"/></g><g style="mask:url(#a)"><path d="M575.82,492.39H448.19a14.77,14.77,0,0,0-14.73,14.73V634.74a14.77,14.77,0,0,0,14.73,14.73H575.82a14.77,14.77,0,0,0,14.73-14.73V507.11A14.77,14.77,0,0,0,575.82,492.39Zm-4.91,112.9H453.1V536.56H570.91Z" transform="translate(-354.93 -296.04)" style="fill:#f1f1f1"/></g><g style="mask:url(#a)"><polygon points="204.96 109.19 314.15 218.36 314.15 117.81 204.96 109.19" style="fill:url(#d)"/></g><g style="mask:url(#a)"><path d="M551.28,296V384.4a29.44,29.44,0,0,0,29.45,29.45h88.36Z" transform="translate(-354.93 -296.04)" style="fill:#fada80"/></g><g style="mask:url(#a)"><polygon points="196.35 0 196.35 2.45 311.7 117.81 314.15 117.81 196.35 0" style="fill:#fff;fill-opacity:0.10000000149011612"/></g><g style="mask:url(#a)"><path d="M384.38,296a29.54,29.54,0,0,0-29.45,29.45v2.45a29.54,29.54,0,0,1,29.45-29.45H551.28V296Z" transform="translate(-354.93 -296.04)" style="fill:#fff;fill-opacity:0.20000000298023224"/></g><g style="mask:url(#a)"><path d="M639.63,725.55H384.38a29.54,29.54,0,0,1-29.45-29.45v2.45A29.54,29.54,0,0,0,384.38,728H639.63a29.54,29.54,0,0,0,29.45-29.45v-2.45A29.54,29.54,0,0,1,639.63,725.55Z" transform="translate(-354.93 -296.04)" style="fill:#bf360c;fill-opacity:0.20000000298023224"/></g><g style="mask:url(#a)"><path d="M580.73,413.85a29.44,29.44,0,0,1-29.45-29.45v2.45a29.44,29.44,0,0,0,29.45,29.45h88.36v-2.45Z" transform="translate(-354.93 -296.04)" style="fill:#bf360c;fill-opacity:0.10000000149011612"/></g><path d="M551.28,296H384.38a29.54,29.54,0,0,0-29.45,29.45V698.55A29.54,29.54,0,0,0,384.38,728H639.63a29.54,29.54,0,0,0,29.45-29.45V413.85Z" transform="translate(-354.93 -296.04)" style="fill:url(#j)"/></svg>